<svg xmlns="http://www.w3.org/2000/svg" width="1200" height="630" viewBox="0 0 1200 630" font-family="Noto Sans CJK SC, DejaVu Sans, sans-serif">
  <defs>
    <linearGradient id="bg" x1="0" y1="0" x2="1" y2="1">
      <stop offset="0" stop-color="#0e1116"/>
      <stop offset="1" stop-color="#171a24"/>
    </linearGradient>
    <linearGradient id="acc" x1="0" y1="0" x2="1" y2="1">
      <stop offset="0" stop-color="#7c48e6"/>
      <stop offset="1" stop-color="#a98af0"/>
    </linearGradient>
  </defs>
  <rect width="1200" height="630" fill="url(#bg)"/>
  <rect x="0" y="0" width="1200" height="8" fill="url(#acc)"/>
  <rect x="80" y="74" width="76" height="76" rx="17" fill="url(#acc)"/>
  <text x="118" y="127" font-size="40" font-weight="800" fill="#ffffff" text-anchor="middle">Sg</text>
  <text x="176" y="105" font-size="27" font-weight="700" fill="#e6edf3">SGLang Visual Guide</text>
  <text x="176" y="138" font-size="22" fill="#9aa6b2">verdenmax.github.io/sglang-visual-guide</text>
  <text x="80" y="300" font-size="76" font-weight="800" fill="#ffffff">SGLang 图解教程</text>
  <text x="80" y="372" font-size="40" font-weight="700" fill="#a98af0">看懂高性能 LLM 服务引擎内部</text>
  <text x="80" y="430" font-size="27" fill="#9aa6b2">从前端 DSL、调度器、RadixAttention 到高性能算子 · 中英双语</text>
  <g font-size="25" font-weight="700">
    <rect x="80" y="486" width="168" height="52" rx="26" fill="#241a3e" stroke="#7c48e6"/>
    <text x="164" y="520" fill="#c9b6f7" text-anchor="middle">63 lessons</text>
    <rect x="262" y="486" width="150" height="52" rx="26" fill="#0d2e2a" stroke="#0d9488"/>
    <text x="337" y="520" fill="#5ed0c4" text-anchor="middle">13 parts</text>
    <rect x="426" y="486" width="196" height="52" rx="26" fill="#161b22" stroke="#2a323c"/>
    <text x="524" y="520" fill="#e6edf3" text-anchor="middle">中文 / English</text>
  </g>
  <g stroke="#3a2f5c" stroke-width="3" fill="none">
    <path d="M970 150 L870 250 M970 150 L1070 250 M870 250 L820 360 M870 250 L930 360 M1070 250 L1070 360"/>
  </g>
  <g>
    <circle cx="970" cy="150" r="30" fill="url(#acc)"/>
    <circle cx="870" cy="250" r="26" fill="#161b22" stroke="#7c48e6" stroke-width="3"/>
    <circle cx="1070" cy="250" r="26" fill="#161b22" stroke="#7c48e6" stroke-width="3"/>
    <circle cx="820" cy="360" r="22" fill="#0d2e2a" stroke="#0d9488" stroke-width="3"/>
    <circle cx="930" cy="360" r="22" fill="#0d2e2a" stroke="#0d9488" stroke-width="3"/>
    <circle cx="1070" cy="360" r="22" fill="#0d2e2a" stroke="#0d9488" stroke-width="3"/>
  </g>
  <text x="970" y="448" font-size="22" fill="#6e7a86" text-anchor="middle">RadixAttention</text>
</svg>
